# Blender 3.3.0
# www.blender.org
o Cube
v 7.145422 -1.000000 1.000000
v 7.145422 1.000000 1.000000
v 17.532419 -1.000000 1.000000
v 17.532419 1.000000 1.000000
v 10.878056 3.000000 1.000000
v 17.532419 3.000000 1.000000
v 14.561546 5.000000 1.000000
v 17.532419 5.000000 1.000000
v -9.906840 -1.000000 1.000000
v -9.906840 1.008464 1.000000
v -19.906841 -1.000000 1.000000
v -19.906841 4.055704 1.000000
v 1.668285 -1.000000 1.000000
v 1.668285 1.000000 1.000000
v 4.406854 -1.000000 1.000000
v 4.406854 1.000000 1.000000
v 1.668285 3.000000 1.000000
v 4.406854 3.000000 1.000000
v -29.196690 -1.000000 1.000000
v -29.196690 5.007966 1.000000
v -46.196732 10.007966 1.000000
v -46.196732 12.007966 1.000000
v -46.196728 -1.000000 1.000000
v -46.196728 5.007966 1.000000
v -37.767056 10.007966 1.000000
v -37.767056 12.007966 1.000000
vn -0.0000 -0.0000 1.0000
vt 0.624185 0.139321
vt 0.627506 0.622968
vt 0.624185 0.139321
vt 0.627506 0.622968
vt 0.627506 0.622968
vt 0.627506 0.622968
vt 0.627506 0.622968
vt 0.627506 0.622968
vt 0.441392 0.184513
vt 0.444713 0.668159
vt 0.441392 0.184513
vt 0.444713 0.668159
vt 0.578486 0.150619
vt 0.581808 0.634265
vt 0.601335 0.144970
vt 0.604657 0.628617
vt 0.581808 0.634265
vt 0.604657 0.628617
vt 0.441392 0.184513
vt 0.444713 0.668159
vt 0.000000 0.000000
vt 0.000000 0.000000
vt 0.000000 0.000000
vt 0.000000 0.000000
vt 0.000000 0.000000
vt 0.000000 0.000000
s 0
f 2/2/1 1/1/1 3/3/1 4/4/1
f 5/5/1 6/6/1 8/8/1 7/7/1
f 2/2/1 4/4/1 6/6/1 5/5/1
f 9/9/1 10/10/1 12/12/1 11/11/1
f 15/15/1 16/16/1 14/14/1 13/13/1
f 9/9/1 13/13/1 14/14/1 10/10/1
f 1/1/1 2/2/1 16/16/1 15/15/1
f 14/14/1 16/16/1 18/18/1 17/17/1
f 11/11/1 12/12/1 20/20/1 19/19/1
f 22/22/1 21/21/1 25/25/1 26/26/1
f 20/20/1 24/24/1 23/23/1 19/19/1
