# Blender 3.3.0
# www.blender.org
mtllib map1.mtl
o Cube.001
v 7.145422 -1.000000 1.000000
v 7.145422 1.000000 1.000000
v 17.532419 -1.000000 1.000000
v 17.532419 1.000000 1.000000
v 10.878056 3.000000 1.000000
v 17.532419 3.000000 1.000000
v 14.561546 5.000000 1.000000
v 17.532419 5.000000 1.000000
v -9.906840 -1.000000 1.000000
v -9.906840 0.856030 1.000000
v -19.906841 -1.000000 1.000000
v -19.906841 1.220431 1.000000
v 1.668285 -1.000000 1.000000
v 1.668285 1.000000 1.000000
v 4.406854 -1.000000 1.000000
v 4.406854 1.000000 1.000000
v 1.668285 3.000000 1.000000
v 4.406854 3.000000 1.000000
v -29.196690 -1.000000 1.000000
v -29.196690 5.007966 1.000000
v -46.196732 10.007966 1.000000
v -46.196732 12.007966 1.000000
v -46.196728 -1.000000 1.000000
v -46.196728 5.007966 1.000000
v -37.767056 10.007966 1.000000
v -37.767056 12.007966 1.000000
v -7.906840 -1.000000 1.000000
v -7.906840 1.008464 1.000000
v -1.906840 -4.000000 1.000000
v -3.906840 -4.000000 1.000000
v -3.906840 -1.000000 1.000000
v -3.906840 1.008464 1.000000
v -1.906840 -1.000000 1.000000
v -1.906840 1.008464 1.000000
v -1.906840 -6.000000 1.000000
v -3.906840 -6.000000 1.000000
v -48.374691 -4.000000 1.000000
v -48.374691 -6.000000 1.000000
v -63.314632 5.289849 1.000000
v -63.314632 -6.000000 1.000000
v -55.486580 4.777058 1.000000
v -55.486580 5.007966 1.000000
v -14.906841 -1.000000 1.000000
v -14.906841 0.946770 1.000000
v -24.551765 -1.000000 1.000000
v -24.551765 2.336785 1.000000
v -22.229303 -1.000000 1.000000
v -22.229303 1.458496 1.000000
v -17.406841 -1.000000 1.000000
v -17.406841 1.068357 1.000000
v -12.406841 -1.000000 1.000000
v -12.406841 0.794696 1.000000
v -26.874228 -1.000000 1.000000
v -26.874228 3.428480 1.000000
v -125.187561 5.289849 1.000000
v -125.187561 -6.000000 1.000000
v -118.241180 5.289849 1.000000
v -118.241180 -6.000000 1.000000
v -125.187561 8.581375 1.000000
v -118.241180 8.581375 1.000000
vn -0.0000 -0.0000 1.0000
vt 1.000000 1.000000
vt 0.000000 0.000000
vt 1.000000 1.000000
vt 0.000000 0.000000
vt 1.000000 0.000000
vt 1.000000 0.000000
vt 1.000000 1.000000
vt 0.000000 0.000000
vt 1.000000 0.000000
vt 1.000000 1.000000
vt 0.000000 0.000000
vt 1.000000 0.000000
vt 1.000000 0.000000
vt 1.000000 1.000000
vt 1.000000 0.000000
vt 0.004313 0.000086
vt 0.999914 0.257616
vt 0.004313 0.924006
vt 0.999914 0.999900
vt 1.000000 1.000000
vt 0.888099 0.000094
vt 0.000000 0.000000
vt 1.000000 0.000000
vt 1.000000 1.000000
vt 1.000000 1.000000
vt 1.000000 0.000000
vt 0.000000 0.000000
vt 1.000000 0.000000
vt 1.000000 1.000000
vt 1.000000 0.000000
vt 0.000000 0.000000
vt 1.000000 0.000000
vt 1.000000 1.000000
vt 1.000000 0.000000
vt 1.000000 0.000000
vt 1.000000 1.000000
vt 1.000000 1.000000
vt 1.000000 0.000000
vt 0.000000 0.000000
vt 1.000000 1.000000
vt 1.000000 1.000000
vt 1.000000 0.000000
vt 0.000000 0.000000
vt 1.000000 0.000000
vt 1.000000 0.000000
vt 1.000000 1.000000
vt 0.999900 0.000086
vt 0.999900 0.999887
vt 1.000000 0.000000
vt 1.000000 1.000000
vt 1.000000 0.000000
vt 0.000000 0.000000
vt 0.000000 0.000000
vt 1.000000 1.000000
vt 1.000000 0.000000
vt 1.000000 1.000000
vt 1.000000 1.000000
vt 1.000000 0.000000
vt 1.000000 0.000000
vt 1.000000 1.000000
vt 1.000000 1.000000
vt 1.000000 0.000000
vt 1.000000 0.000000
vt 0.000000 0.000000
vt 1.000000 0.000000
vt 1.000000 1.000000
vt 1.000000 0.000000
vt 0.000000 0.000000
vt 1.000000 0.000000
vt 1.000000 1.000000
vt 1.000000 0.000000
vt 1.000000 1.000000
vt 1.000000 0.000000
vt 0.999909 0.000091
vt -0.110538 0.110715
vt -0.110538 0.889285
vt 0.999909 0.778657
vt 1.000000 0.000000
vt 1.000000 1.000000
vt 1.000000 0.000000
vt 0.000000 0.000000
vt 1.000000 0.000000
vt 1.000000 1.000000
vt 0.000000 0.000000
vt 1.000000 0.000000
vt 0.888099 0.999906
vt 0.000092 0.000091
vt 0.060912 0.999906
vt 0.000091 0.827283
vt 0.889285 0.110715
vt 0.000086 0.257616
vt 0.889285 0.828466
vt 0.000086 0.975371
vt 1.000000 0.000000
vt 1.000000 1.000000
vt 0.000000 0.000000
vt 1.000000 0.000000
vt 1.000000 1.000000
vt 1.000000 0.000000
vt 1.000000 0.000000
vt 1.000000 1.000000
vt 1.000000 0.000000
vt 0.000000 0.000000
vt 1.000000 0.000000
vt 1.000000 1.000000
vt 1.000000 0.000000
vt 1.000000 1.000000
vt 1.000000 0.000000
s 0
usemtl brick.001
f 1/2/1 4/6/1 2/3/1
f 6/11/1 7/13/1 5/10/1
f 4/8/1 5/9/1 2/3/1
f 50/88/1 11/21/1 49/86/1
f 16/31/1 13/23/1 15/29/1
f 10/18/1 27/47/1 28/48/1
f 2/4/1 15/28/1 1/1/1
f 16/31/1 17/32/1 14/25/1
f 54/96/1 19/35/1 53/95/1
f 21/39/1 26/45/1 22/40/1
f 24/43/1 19/35/1 20/37/1
f 31/53/1 29/49/1 33/56/1
f 30/52/1 35/59/1 29/50/1
f 31/53/1 34/58/1 32/54/1
f 30/52/1 38/65/1 36/61/1
f 14/27/1 33/55/1 13/24/1
f 37/64/1 40/69/1 38/66/1
f 24/43/1 41/71/1 23/41/1
f 52/92/1 43/75/1 51/90/1
f 48/84/1 45/78/1 47/83/1
f 12/22/1 47/82/1 11/20/1
f 44/77/1 49/87/1 43/74/1
f 9/17/1 52/93/1 51/91/1
f 46/81/1 53/94/1 45/79/1
f 57/103/1 56/100/1 58/105/1
f 39/68/1 58/104/1 40/70/1
f 57/103/1 59/106/1 55/98/1
f 1/2/1 3/5/1 4/7/1
f 6/11/1 8/15/1 7/14/1
f 4/8/1 6/12/1 5/10/1
f 50/88/1 12/22/1 11/21/1
f 16/31/1 14/26/1 13/24/1
f 10/18/1 9/16/1 27/47/1
f 2/4/1 16/30/1 15/29/1
f 16/31/1 18/34/1 17/33/1
f 54/96/1 20/38/1 19/36/1
f 21/39/1 25/44/1 26/46/1
f 24/43/1 23/42/1 19/36/1
f 31/53/1 30/51/1 29/50/1
f 30/52/1 36/62/1 35/60/1
f 31/53/1 33/55/1 34/57/1
f 30/52/1 37/63/1 38/66/1
f 14/27/1 34/58/1 33/56/1
f 37/64/1 39/67/1 40/70/1
f 24/43/1 42/73/1 41/72/1
f 52/92/1 44/76/1 43/75/1
f 48/84/1 46/80/1 45/79/1
f 12/22/1 48/85/1 47/83/1
f 44/77/1 50/89/1 49/87/1
f 9/17/1 10/19/1 52/93/1
f 46/81/1 54/97/1 53/95/1
f 57/103/1 55/99/1 56/101/1
f 39/68/1 57/102/1 58/105/1
f 57/103/1 60/108/1 59/107/1
