# Blender 3.3.0
# www.blender.org
mtllib map1.mtl
o Cube
v 7.145422 -1.000000 1.000000
v 7.145422 1.000000 1.000000
v 17.532419 -1.000000 1.000000
v 17.532419 1.000000 1.000000
v 10.878056 3.000000 1.000000
v 17.532419 3.000000 1.000000
v 14.561546 5.000000 1.000000
v 17.532419 5.000000 1.000000
v -9.906840 -1.000000 1.000000
v -9.906840 0.856030 1.000000
v -19.906841 -1.000000 1.000000
v -19.906841 1.220431 1.000000
v 1.668285 -1.000000 1.000000
v 1.668285 1.000000 1.000000
v 4.406854 -1.000000 1.000000
v 4.406854 1.000000 1.000000
v 1.668285 3.000000 1.000000
v 4.406854 3.000000 1.000000
v -29.196690 -1.000000 1.000000
v -29.196690 5.007966 1.000000
v -46.196732 10.007966 1.000000
v -46.196732 12.007966 1.000000
v -46.196728 -1.000000 1.000000
v -46.196728 5.007966 1.000000
v -37.767056 10.007966 1.000000
v -37.767056 12.007966 1.000000
v -7.906840 -1.000000 1.000000
v -7.906840 1.008464 1.000000
v -1.906840 -4.000000 1.000000
v -3.906840 -4.000000 1.000000
v -3.906840 -1.000000 1.000000
v -3.906840 1.008464 1.000000
v -1.906840 -1.000000 1.000000
v -1.906840 1.008464 1.000000
v -1.906840 -6.000000 1.000000
v -3.906840 -6.000000 1.000000
v -48.374691 -4.000000 1.000000
v -48.374691 -6.000000 1.000000
v -63.314632 5.289849 1.000000
v -63.314632 -6.000000 1.000000
v -55.486580 4.777058 1.000000
v -55.486580 5.007966 1.000000
v -14.906841 -1.000000 1.000000
v -14.906841 0.946770 1.000000
v -24.551765 -1.000000 1.000000
v -24.551765 2.336785 1.000000
v -22.229303 -1.000000 1.000000
v -22.229303 1.458496 1.000000
v -17.406841 -1.000000 1.000000
v -17.406841 1.068357 1.000000
v -12.406841 -1.000000 1.000000
v -12.406841 0.794696 1.000000
v -26.874228 -1.000000 1.000000
v -26.874228 3.428480 1.000000
vn -0.0000 -0.0000 1.0000
vt 1.000000 0.000000
vt 0.000000 0.000000
vt 1.000000 1.000000
vt 1.000000 1.000000
vt 0.000000 1.000000
vt 1.000000 0.000000
vt 0.000000 0.000000
vt 0.000000 1.000000
vt 1.000000 0.000000
vt 1.000000 1.000000
vt 0.000000 1.000000
vt 1.000000 1.000000
vt 1.000000 1.000000
vt 1.000000 0.000000
vt 1.000000 0.000000
vt 1.000000 1.000000
vt 0.000000 0.000000
vt 0.972334 -0.027666
vt 0.000000 1.000000
vt 0.972334 0.875500
vt 0.000000 0.000000
vt 1.000000 0.000000
vt 0.000000 1.000000
vt 0.000000 0.000000
vt 1.000000 1.000000
vt 1.000000 0.000000
vt 0.000000 0.000000
vt 1.000000 1.000000
vt 0.000000 1.000000
vt 1.000000 0.000000
vt 0.000000 1.000000
vt 1.000000 1.000000
vt 0.386564 1.000000
vt 0.000000 1.000000
vt 0.386564 0.000000
vt 0.000000 0.000000
vt 1.000000 0.000000
vt 0.000000 0.000000
vt 1.000000 1.000000
vt 0.000000 0.000000
vt 1.000000 0.000000
vt 1.000000 1.000000
vt 0.000000 1.000000
vt 0.000000 1.000000
vt 0.000000 0.000000
vt 0.000000 1.000000
vt 0.000000 0.000000
vt 1.000000 1.000000
vt 1.000000 0.000000
vt 1.000000 0.000000
vt 0.000000 0.000000
vt 0.000000 1.000000
vt 1.000000 0.000000
vt 0.000000 0.000000
vt 1.000000 1.000000
vt 0.000000 1.000000
vt 0.000000 1.000000
vt 1.000000 1.000000
vt 0.000000 0.000000
vt 1.000000 1.000000
vt 1.000000 0.000000
vt 0.000000 1.000000
vt 0.000000 0.000000
vt 1.000000 1.000000
vt 0.000000 1.000000
vt 0.000000 1.000000
vt 1.000000 1.000000
vt 0.000000 0.000000
vt 1.000000 0.000000
vt 0.000000 1.000000
vt 1.000000 1.000000
vt 0.000000 0.000000
vt 0.524438 0.000000
vt 0.000000 1.000000
vt 0.524438 0.753483
vt 0.696018 0.000000
vt 0.027666 -0.027666
vt 0.696018 0.736786
vt 0.027666 0.972334
vt 1.000000 0.000000
vt 0.000000 0.000000
vt 1.000000 1.000000
vt 0.000000 1.000000
vt 1.000000 0.000000
vt 0.000000 0.000000
vt 1.000000 1.000000
vt 0.000000 1.000000
vt 0.000000 1.000000
vt 0.000000 0.000000
vt 0.000000 0.262898
vt 0.000000 1.000000
s 0
usemtl brick
f 2/2/1 1/1/1 3/4/1 4/5/1
f 5/7/1 6/9/1 8/12/1 7/11/1
f 2/2/1 4/6/1 6/10/1 5/8/1
f 49/80/1 50/82/1 12/19/1 11/17/1
f 15/26/1 16/28/1 14/23/1 13/21/1
f 10/15/1 9/13/1 27/44/1 28/45/1
f 1/1/1 2/3/1 16/29/1 15/27/1
f 14/24/1 16/30/1 18/32/1 17/31/1
f 53/88/1 54/90/1 20/35/1 19/33/1
f 22/38/1 21/37/1 25/42/1 26/43/1
f 20/36/1 24/41/1 23/39/1 19/34/1
f 33/54/1 31/50/1 30/48/1 29/46/1
f 29/47/1 30/49/1 36/58/1 35/57/1
f 32/52/1 31/51/1 33/53/1 34/55/1
f 36/59/1 30/49/1 37/60/1 38/62/1
f 14/25/1 34/56/1 33/54/1 13/22/1
f 38/63/1 37/61/1 39/64/1 40/65/1
f 23/40/1 24/41/1 42/67/1 41/66/1
f 51/84/1 52/86/1 44/70/1 43/68/1
f 47/76/1 48/78/1 46/74/1 45/72/1
f 11/18/1 12/20/1 48/79/1 47/77/1
f 43/69/1 44/71/1 50/83/1 49/81/1
f 9/14/1 10/16/1 52/87/1 51/85/1
f 45/73/1 46/75/1 54/91/1 53/89/1
